<svg width="640" height="440" viewBox="0 0 640 440" fill="none" xmlns="http://www.w3.org/2000/svg">
  <defs>
    <linearGradient id="exp3LargeGradient" x1="20" y1="40" x2="620" y2="360" gradientUnits="userSpaceOnUse">
      <stop offset="0" stop-color="#065F46" />
      <stop offset="1" stop-color="#10B981" />
    </linearGradient>
    <linearGradient id="exp3LargePath" x1="120" y1="252" x2="520" y2="300" gradientUnits="userSpaceOnUse">
      <stop offset="0" stop-color="#DCFCE7" />
      <stop offset="1" stop-color="#86EFAC" />
    </linearGradient>
  </defs>
  <rect width="640" height="440" rx="46" fill="url(#exp3LargeGradient)" opacity="0.82" />
  <rect x="56" y="64" width="528" height="312" rx="36" fill="#F0FDF4" />
  <path
    d="M96 324c40-24 72-52 108-52s68 28 104 28 68-18 104-18 68 18 68 18"
    stroke="url(#exp3LargePath)"
    stroke-width="14"
    stroke-linecap="round"
    stroke-linejoin="round"
  />
  <path
    d="M152 252c32-34 50-68 88-68s60 34 104 34 68-26 104-26"
    stroke="#BBF7D0"
    stroke-width="12"
    stroke-linecap="round"
    opacity="0.55"
  />
  <circle cx="220" cy="176" r="32" fill="#34D399" opacity="0.88" />
  <circle cx="320" cy="204" r="42" fill="#4ADE80" opacity="0.75" />
  <circle cx="428" cy="252" r="36" fill="#BBF7D0" opacity="0.6" />
</svg>
